<svg width="30" height="33" viewBox="0 0 30 33" fill="none" xmlns="http://www.w3.org/2000/svg">
<circle cx="15.0086" cy="23.0086" r="1.75862" fill="#439361"/>
<path d="M25.25 15.25H4.25C2.59315 15.25 1.25 16.5524 1.25 18.1591V28.3409C1.25 29.9476 2.59315 31.25 4.25 31.25H25.25C26.9069 31.25 28.25 29.9476 28.25 28.3409V18.1591C28.25 16.5524 26.9069 15.25 25.25 15.25Z" stroke="#439361" stroke-width="2.5" stroke-linecap="round" stroke-linejoin="round"/>
<path d="M7.25 15.25V9.02778C7.25 6.96498 8.04018 4.98667 9.4467 3.52806C10.8532 2.06944 12.7609 1.25 14.75 1.25C16.7391 1.25 18.6468 2.06944 20.0533 3.52806C21.4598 4.98667 22.25 6.96498 22.25 9.02778V15.25" stroke="#439361" stroke-width="2.5" stroke-linecap="round" stroke-linejoin="round"/>
</svg>
