<svg width="34" height="38" viewBox="0 0 34 38" fill="none" xmlns="http://www.w3.org/2000/svg">
<path d="M27.3346 11.8333C30.1881 11.8333 32.5013 9.52014 32.5013 6.66667C32.5013 3.8132 30.1881 1.5 27.3346 1.5C24.4812 1.5 22.168 3.8132 22.168 6.66667C22.168 9.52014 24.4812 11.8333 27.3346 11.8333Z" stroke="#439361" stroke-width="3" stroke-linecap="round" stroke-linejoin="round"/>
<path d="M6.66667 23.8889C9.52014 23.8889 11.8333 21.5757 11.8333 18.7222C11.8333 15.8687 9.52014 13.5555 6.66667 13.5555C3.8132 13.5555 1.5 15.8687 1.5 18.7222C1.5 21.5757 3.8132 23.8889 6.66667 23.8889Z" stroke="#439361" stroke-width="3" stroke-linecap="round" stroke-linejoin="round"/>
<path d="M27.3346 35.9444C30.1881 35.9444 32.5013 33.6312 32.5013 30.7778C32.5013 27.9243 30.1881 25.6111 27.3346 25.6111C24.4812 25.6111 22.168 27.9243 22.168 30.7778C22.168 33.6312 24.4812 35.9444 27.3346 35.9444Z" stroke="#439361" stroke-width="3" stroke-linecap="round" stroke-linejoin="round"/>
<path d="M11.125 21.3228L22.8878 28.1772" stroke="#439361" stroke-width="3" stroke-linecap="round" stroke-linejoin="round"/>
<path d="M22.8706 9.26733L11.125 16.1218" stroke="#439361" stroke-width="3" stroke-linecap="round" stroke-linejoin="round"/>
</svg>
